<svg xmlns="http://www.w3.org/2000/svg" width="32" height="32" viewBox="0 0 32 32">
  <defs>
    <linearGradient id="bananaGradient" x1="0%" y1="0%" x2="100%" y2="100%">
      <stop offset="0%" stop-color="#FFE135"/>
      <stop offset="50%" stop-color="#FFDD00"/>
      <stop offset="100%" stop-color="#FFC700"/>
    </linearGradient>
    <linearGradient id="stemGradient" x1="0%" y1="0%" x2="100%" y2="100%">
      <stop offset="0%" stop-color="#8B4513"/>
      <stop offset="100%" stop-color="#654321"/>
    </linearGradient>
  </defs>
  
  <!-- Banana body -->
  <path d="M8 26C8 26 6 20 8 16C10 12 12 10 16 8C20 6 24 6 26 8C28 10 28 12 26 14C24 16 20 18 18 22C16 26 14 28 12 28C10 28 8 26 8 26Z" 
        fill="url(#bananaGradient)" 
        stroke="#E6B800" 
        stroke-width="0.5"/>
  
  <!-- Banana highlights -->
  <path d="M10 24C10 24 8 19 10 16C11 14 13 12 15 11C17 10 19 10 21 11" 
        fill="none" 
        stroke="#FFEB3B" 
        stroke-width="1" 
        stroke-linecap="round" 
        opacity="0.6"/>
  
  <!-- Banana stem -->
  <path d="M24 10C24 10 25 8 26 8C27 8 28 9 28 10C28 11 27 12 26 12C25 12 24 11 24 10Z" 
        fill="url(#stemGradient)"/>
  
  <!-- Small banana spots -->
  <circle cx="12" cy="20" r="0.8" fill="#E6B800" opacity="0.4"/>
  <circle cx="15" cy="24" r="0.6" fill="#E6B800" opacity="0.4"/>
  <circle cx="18" cy="16" r="0.7" fill="#E6B800" opacity="0.4"/>
</svg>